<svg xmlns="http://www.w3.org/2000/svg" width="794" height="1123" viewBox="0 0 794 1123" font-family="DejaVu Sans">
<rect width="794" height="1123" fill="#FFFFFF"/>
<circle cx="397" cy="561" r="379" fill="#fff" stroke="#3A3A4A" stroke-width="5"/>
<path d="M 397.00 561.00 L 397.00 189.00 A 372.00 372.00 0 0 1 660.04 297.96 Z" fill="#FFD6A5" stroke="#3A3A4A" stroke-width="3"/>
<g transform="translate(482.41,354.79) scale(1.55)"><path d="M -46 40 L -46 16 L -20 16 L -20 -8 L 6 -8 L 6 -32 L 34 -32 L 34 40 Z" fill="#FFEBD2" stroke="#3A3A4A" stroke-width="6" stroke-linejoin="round"/>
<polyline points="-20,16 -20,-8 6,-8 6,-32 34,-32" fill="none" stroke="#3A3A4A" stroke-width="6" stroke-linecap="round" stroke-linejoin="round"/>
<line x1="22" y1="-44" x2="22" y2="-66" fill="none" stroke="#3A3A4A" stroke-width="6" stroke-linecap="round" stroke-linejoin="round"/>
<polyline points="12,-56 22,-68 32,-56" fill="none" stroke="#3A3A4A" stroke-width="6" stroke-linecap="round" stroke-linejoin="round"/></g>
<path d="M 397.00 561.00 L 660.04 297.96 A 372.00 372.00 0 0 1 769.00 561.00 Z" fill="#FDFFB6" stroke="#3A3A4A" stroke-width="3"/>
<g transform="translate(603.21,475.59) scale(1.55)"><path d="M 0 -20 C -11 -23 -30 -16 -34 2 C -38 20 -25 34 -12 31 C -5 29 -2 25 0 20 C 2 25 5 29 12 31 C 25 34 38 20 34 2 C 30 -16 11 -23 0 -20 Z" fill="#FFE2C2" stroke="#3A3A4A" stroke-width="6"/>
<path d="M 0 -20 C 5 -7 5 7 0 19" fill="none" stroke="#3A3A4A" stroke-width="6" stroke-linecap="round" stroke-linejoin="round"/>
<g transform="rotate(-22 22 22)"><rect x="9" y="12" width="28" height="22" rx="7" fill="#BFE3FF" stroke="#3A3A4A" stroke-width="5"/><line x1="9" y1="20" x2="37" y2="20" stroke="#fff" stroke-width="3"/><line x1="9" y1="27" x2="37" y2="27" stroke="#fff" stroke-width="3"/><line x1="19" y1="12" x2="19" y2="34" stroke="#fff" stroke-width="3"/><line x1="27" y1="12" x2="27" y2="34" stroke="#fff" stroke-width="3"/></g>
<circle cx="-27" cy="-22" r="7" fill="#fff" stroke="#3A3A4A" stroke-width="4"/>
<circle cx="-34" cy="-32" r="4.5" fill="#fff" stroke="#3A3A4A" stroke-width="4"/>
<circle cx="22" cy="-28" r="5" fill="#fff" stroke="#3A3A4A" stroke-width="4"/>
<path d="M -20 32 q 6 9 0 16 q -6 -7 0 -16 Z" fill="#9BD8FF" stroke="#3A3A4A" stroke-width="3"/></g>
<path d="M 397.00 561.00 L 769.00 561.00 A 372.00 372.00 0 0 1 660.04 824.04 Z" fill="#CAFFBF" stroke="#3A3A4A" stroke-width="3"/>
<g transform="translate(603.21,646.41) scale(1.55)"><circle cx="0" cy="0" r="33" fill="#FFE2C2" stroke="#3A3A4A" stroke-width="6"/>
<path d="M -19 -9 q 6 7 12 0" fill="none" stroke="#3A3A4A" stroke-width="6" stroke-linecap="round" stroke-linejoin="round"/>
<path d="M 7 -9 q 6 7 12 0" fill="none" stroke="#3A3A4A" stroke-width="6" stroke-linecap="round" stroke-linejoin="round"/>
<circle cx="-22" cy="8" r="5" fill="#FFB3A7"/>
<circle cx="22" cy="8" r="5" fill="#FFB3A7"/>
<path d="M -9 13 q 9 8 18 0" fill="none" stroke="#3A3A4A" stroke-width="6" stroke-linecap="round" stroke-linejoin="round"/>
<g transform="rotate(-15 23 4)"><rect x="11" y="-10" width="26" height="24" rx="7" fill="#BFE3FF" stroke="#3A3A4A" stroke-width="5"/><line x1="11" y1="-2" x2="37" y2="-2" stroke="#fff" stroke-width="3"/><line x1="11" y1="6" x2="37" y2="6" stroke="#fff" stroke-width="3"/><line x1="20" y1="-10" x2="20" y2="14" stroke="#fff" stroke-width="3"/><line x1="28" y1="-10" x2="28" y2="14" stroke="#fff" stroke-width="3"/></g>
<circle cx="-26" cy="-23" r="7" fill="#fff" stroke="#3A3A4A" stroke-width="4"/>
<circle cx="-34" cy="-33" r="4.5" fill="#fff" stroke="#3A3A4A" stroke-width="4"/>
<path d="M -24 30 q 6 9 0 16 q -6 -7 0 -16 Z" fill="#9BD8FF" stroke="#3A3A4A" stroke-width="3"/>
<path d="M 4 33 q 6 9 0 16 q -6 -7 0 -16 Z" fill="#9BD8FF" stroke="#3A3A4A" stroke-width="3"/></g>
<path d="M 397.00 561.00 L 660.04 824.04 A 372.00 372.00 0 0 1 397.00 933.00 Z" fill="#9BF6FF" stroke="#3A3A4A" stroke-width="3"/>
<g transform="translate(482.41,767.21) scale(1.55)"><path d="M -30 -18 C -30 -42 -8 -44 0 -30 C 8 -44 30 -42 30 -18 C 30 6 20 40 11 26 C 5 17 -5 17 -11 26 C -20 40 -30 6 -30 -18 Z" fill="#fff" stroke="#3A3A4A" stroke-width="6"/>
<path d="M 0 -28 C 6 -20 6 -8 2 2" fill="none" stroke="#D7E6F5" stroke-width="4" stroke-linecap="round"/>
<line x1="-46" y1="46" x2="-10" y2="10" stroke="#3A3A4A" stroke-width="9" stroke-linecap="round"/>
<rect x="-12" y="-8" width="30" height="16" rx="4" transform="rotate(-45 3 0)" fill="#A0C4FF" stroke="#3A3A4A" stroke-width="5"/>
<g transform="rotate(-45 3 0)"><line x1="-6" y1="-8" x2="-6" y2="-16" stroke="#3A3A4A" stroke-width="3" stroke-linecap="round"/><line x1="0" y1="-8" x2="0" y2="-16" stroke="#3A3A4A" stroke-width="3" stroke-linecap="round"/><line x1="6" y1="-8" x2="6" y2="-16" stroke="#3A3A4A" stroke-width="3" stroke-linecap="round"/><line x1="12" y1="-8" x2="12" y2="-16" stroke="#3A3A4A" stroke-width="3" stroke-linecap="round"/></g>
<path d="M 26 -34 l 3 8 l 8 3 l -8 3 l -3 8 l -3 -8 l -8 -3 l 8 -3 Z" fill="#FFE08A" stroke="#3A3A4A" stroke-width="2"/></g>
<path d="M 397.00 561.00 L 397.00 933.00 A 372.00 372.00 0 0 1 133.96 824.04 Z" fill="#A0C4FF" stroke="#3A3A4A" stroke-width="3"/>
<g transform="translate(311.59,767.21) scale(1.55)"><path d="M -20 -34 q 20 14 40 0 l 16 12 l -12 14 l -10 -7 l 0 50 q 0 6 -6 6 l -10 0 0 -22 -4 0 0 22 -10 0 q -6 0 -6 -6 l 0 -50 l -10 7 l -12 -14 Z" fill="#9DBBF5" stroke="#3A3A4A" stroke-width="6"/>
<path d="M -10 -32 q 10 9 20 0" fill="none" stroke="#3A3A4A" stroke-width="6" stroke-linecap="round" stroke-linejoin="round"/>
<line x1="0" y1="-22" x2="0" y2="22" stroke="#3A3A4A" stroke-width="3"/>
<circle cx="0" cy="-12" r="3" fill="#3A3A4A"/>
<circle cx="0" cy="0" r="3" fill="#3A3A4A"/>
<circle cx="0" cy="12" r="3" fill="#3A3A4A"/>
<path d="M -18 6 a 8 8 0 1 0 6 12 a 6.5 6.5 0 1 1 -6 -12 Z" fill="#FDFFB6" stroke="#3A3A4A" stroke-width="2.5"/></g>
<path d="M 397.00 561.00 L 133.96 824.04 A 372.00 372.00 0 0 1 25.00 561.00 Z" fill="#BDB2FF" stroke="#3A3A4A" stroke-width="3"/>
<g transform="translate(190.79,646.41) scale(1.55)"><g transform="rotate(-5 -18 30)"><rect x="-38" y="-26" width="32" height="56" rx="4" fill="#FF9AA2" stroke="#3A3A4A" stroke-width="6"/><line x1="-31" y1="-22" x2="-31" y2="26" stroke="#3A3A4A" stroke-width="3"/><rect x="-12" y="-22" width="6" height="48" rx="2" fill="#fff" stroke="#3A3A4A" stroke-width="3"/><line x1="-26" y1="-8" x2="-16" y2="-8" fill="none" stroke="#3A3A4A" stroke-width="6" stroke-linecap="round" stroke-linejoin="round"/><line x1="-26" y1="3" x2="-16" y2="3" fill="none" stroke="#3A3A4A" stroke-width="6" stroke-linecap="round" stroke-linejoin="round"/></g>
<g transform="rotate(5 14 30)"><rect x="2" y="-32" width="32" height="62" rx="4" fill="#9BF6FF" stroke="#3A3A4A" stroke-width="6"/><line x1="9" y1="-28" x2="9" y2="26" stroke="#3A3A4A" stroke-width="3"/><rect x="28" y="-28" width="6" height="54" rx="2" fill="#fff" stroke="#3A3A4A" stroke-width="3"/><line x1="14" y1="-14" x2="24" y2="-14" fill="none" stroke="#3A3A4A" stroke-width="6" stroke-linecap="round" stroke-linejoin="round"/><line x1="14" y1="-3" x2="24" y2="-3" fill="none" stroke="#3A3A4A" stroke-width="6" stroke-linecap="round" stroke-linejoin="round"/><path d="M 20 -32 l 0 18 l -4 -4 l -4 4 l 0 -18 Z" fill="#FFE08A" stroke="#3A3A4A" stroke-width="3"/></g></g>
<path d="M 397.00 561.00 L 25.00 561.00 A 372.00 372.00 0 0 1 133.96 297.96 Z" fill="#FFC6FF" stroke="#3A3A4A" stroke-width="3"/>
<g transform="translate(190.79,475.59) scale(1.55)"><path d="M -48 32 l 0 -26 q 0 -8 8 -8 l 6 0 q 6 0 6 6 l 0 8 l 62 0 q 8 0 8 8 l 0 10" fill="#FFDCEB" stroke="#3A3A4A" stroke-width="6"/>
<line x1="-48" y1="32" x2="-48" y2="48" fill="none" stroke="#3A3A4A" stroke-width="6" stroke-linecap="round" stroke-linejoin="round"/>
<line x1="42" y1="32" x2="42" y2="48" fill="none" stroke="#3A3A4A" stroke-width="6" stroke-linecap="round" stroke-linejoin="round"/>
<line x1="-48" y1="32" x2="42" y2="32" fill="none" stroke="#3A3A4A" stroke-width="6" stroke-linecap="round" stroke-linejoin="round"/>
<rect x="-43" y="-12" width="22" height="16" rx="5" fill="#fff" stroke="#3A3A4A" stroke-width="4"/>
<g transform="translate(8 -2)"><path d="M 0 4 C -10 -5 -24 -5 -33 1 L -33 24 C -24 18 -10 18 0 28 C 10 18 24 18 33 24 L 33 1 C 24 -5 10 -5 0 4 Z" fill="#fff" stroke="#3A3A4A" stroke-width="6"/><line x1="0" y1="4" x2="0" y2="28" stroke="#3A3A4A" stroke-width="4"/><line x1="-25" y1="6" x2="-8" y2="9" stroke="#9BD8FF" stroke-width="2.5"/><line x1="-25" y1="13" x2="-8" y2="16" stroke="#9BD8FF" stroke-width="2.5"/><line x1="8" y1="9" x2="25" y2="6" stroke="#9BD8FF" stroke-width="2.5"/><line x1="8" y1="16" x2="25" y2="13" stroke="#9BD8FF" stroke-width="2.5"/></g></g>
<path d="M 397.00 561.00 L 133.96 297.96 A 372.00 372.00 0 0 1 397.00 189.00 Z" fill="#FFADAD" stroke="#3A3A4A" stroke-width="3"/>
<g transform="translate(311.59,354.79) scale(1.55)"><circle cx="-6" cy="8" r="32" fill="#FFE2C2" stroke="#3A3A4A" stroke-width="6"/>
<path d="M -22 2 q 7 9 14 0" fill="none" stroke="#3A3A4A" stroke-width="6" stroke-linecap="round" stroke-linejoin="round"/>
<path d="M 2 2 q 7 9 14 0" fill="none" stroke="#3A3A4A" stroke-width="6" stroke-linecap="round" stroke-linejoin="round"/>
<circle cx="-24" cy="14" r="5" fill="#FFB3A7"/>
<circle cx="14" cy="14" r="5" fill="#FFB3A7"/>
<path d="M -8 22 q 8 6 16 0" fill="none" stroke="#3A3A4A" stroke-width="6" stroke-linecap="round" stroke-linejoin="round"/>
<polyline points="20,0 30,0 20,10 30,10" fill="none" stroke="#3A3A4A" stroke-width="4.5" stroke-linecap="round" stroke-linejoin="round"/>
<polyline points="30,-16 43,-16 30,-3 43,-3" fill="none" stroke="#3A3A4A" stroke-width="4.5" stroke-linecap="round" stroke-linejoin="round"/>
<polyline points="42,-36 58,-36 42,-20 58,-20" fill="none" stroke="#3A3A4A" stroke-width="4.5" stroke-linecap="round" stroke-linejoin="round"/></g>
<circle cx="397" cy="561" r="68" fill="#3A3A4A" stroke="#3A3A4A" stroke-width="3"/>
<path d="M 389 531 a 30 30 0 1 0 20 46 a 24 24 0 1 1 -20 -46 Z" fill="#FFE08A"/>
<circle cx="423" cy="547" r="3.5" fill="#fff"/>
<circle cx="413" cy="587" r="3" fill="#fff"/>
<circle cx="367" cy="583" r="3" fill="#fff"/>
</svg>