<svg xmlns="http://www.w3.org/2000/svg" width="794" height="1123" viewBox="0 0 794 1123" font-family="DejaVu Sans">
<rect width="794" height="1123" fill="#FFFFFF"/>
<circle cx="397" cy="561" r="379" fill="#fff" stroke="#3A3A4A" stroke-width="5"/>
<path d="M 397.00 561.00 L 397.00 189.00 A 372.00 372.00 0 0 1 660.04 297.96 Z" fill="#FFD6A5" stroke="#3A3A4A" stroke-width="3"/>
<g transform="translate(482.41,354.79) scale(1.55)"><path d="M -46 40 L -46 16 L -20 16 L -20 -8 L 6 -8 L 6 -32 L 34 -32 L 34 40 Z" fill="#FFEBD2" stroke="#3A3A4A" stroke-width="6" stroke-linejoin="round"/>
<polyline points="-20,16 -20,-8 6,-8 6,-32 34,-32" fill="none" stroke="#3A3A4A" stroke-width="6" stroke-linecap="round" stroke-linejoin="round"/>
<line x1="22" y1="-44" x2="22" y2="-66" fill="none" stroke="#3A3A4A" stroke-width="6" stroke-linecap="round" stroke-linejoin="round"/>
<polyline points="12,-56 22,-68 32,-56" fill="none" stroke="#3A3A4A" stroke-width="6" stroke-linecap="round" stroke-linejoin="round"/></g>
<path d="M 397.00 561.00 L 660.04 297.96 A 372.00 372.00 0 0 1 769.00 561.00 Z" fill="#FDFFB6" stroke="#3A3A4A" stroke-width="3"/>
<g transform="translate(603.21,475.59) scale(1.55)"><circle cx="-15" cy="12" r="20" fill="#FFE2C2" stroke="#3A3A4A" stroke-width="6"/>
<circle cx="15" cy="12" r="20" fill="#FFE2C2" stroke="#3A3A4A" stroke-width="6"/>
<path d="M 0 -6 q 4 14 0 28" fill="none" stroke="#3A3A4A" stroke-width="6" stroke-linecap="round" stroke-linejoin="round"/>
<rect x="-26" y="-40" width="40" height="20" rx="8" fill="#FFE08A" stroke="#3A3A4A" stroke-width="6"/>
<circle cx="-15" cy="-30" r="2.5" fill="#3A3A4A"/>
<circle cx="-3" cy="-27" r="2.5" fill="#3A3A4A"/>
<circle cx="5" cy="-33" r="2.5" fill="#3A3A4A"/>
<circle cx="24" cy="-34" r="8" fill="#fff" stroke="#3A3A4A" stroke-width="4"/>
<circle cx="34" cy="-46" r="5" fill="#fff" stroke="#3A3A4A" stroke-width="4"/>
<path d="M -30 26 q 6 9 0 16 q -6 -7 0 -16 Z" fill="#9BD8FF" stroke="#3A3A4A" stroke-width="3"/>
<path d="M 30 26 q 6 9 0 16 q -6 -7 0 -16 Z" fill="#9BD8FF" stroke="#3A3A4A" stroke-width="3"/></g>
<path d="M 397.00 561.00 L 769.00 561.00 A 372.00 372.00 0 0 1 660.04 824.04 Z" fill="#CAFFBF" stroke="#3A3A4A" stroke-width="3"/>
<g transform="translate(603.21,646.41) scale(1.55)"><circle cx="0" cy="4" r="32" fill="#FFE2C2" stroke="#3A3A4A" stroke-width="6"/>
<circle cx="-12" cy="-2" r="4" fill="#3A3A4A"/>
<circle cx="12" cy="-2" r="4" fill="#3A3A4A"/>
<path d="M -12 14 q 12 11 24 0" fill="none" stroke="#3A3A4A" stroke-width="6" stroke-linecap="round" stroke-linejoin="round"/>
<circle cx="-20" cy="10" r="5" fill="#FFB3A7"/>
<circle cx="20" cy="10" r="5" fill="#FFB3A7"/>
<circle cx="-22" cy="-26" r="11" fill="#fff" stroke="#3A3A4A" stroke-width="4"/>
<circle cx="-4" cy="-34" r="13" fill="#fff" stroke="#3A3A4A" stroke-width="4"/>
<circle cx="16" cy="-28" r="11" fill="#fff" stroke="#3A3A4A" stroke-width="4"/>
<circle cx="28" cy="-18" r="8" fill="#fff" stroke="#3A3A4A" stroke-width="4"/>
<circle cx="-32" cy="-14" r="8" fill="#fff" stroke="#3A3A4A" stroke-width="4"/>
<path d="M -36 18 q 6 9 0 16 q -6 -7 0 -16 Z" fill="#9BD8FF" stroke="#3A3A4A" stroke-width="3"/>
<path d="M 36 14 q 6 9 0 16 q -6 -7 0 -16 Z" fill="#9BD8FF" stroke="#3A3A4A" stroke-width="3"/></g>
<path d="M 397.00 561.00 L 660.04 824.04 A 372.00 372.00 0 0 1 397.00 933.00 Z" fill="#9BF6FF" stroke="#3A3A4A" stroke-width="3"/>
<g transform="translate(482.41,767.21) scale(1.55)"><path d="M -30 -18 C -30 -42 -8 -44 0 -30 C 8 -44 30 -42 30 -18 C 30 6 20 40 11 26 C 5 17 -5 17 -11 26 C -20 40 -30 6 -30 -18 Z" fill="#fff" stroke="#3A3A4A" stroke-width="6"/>
<path d="M 0 -28 C 6 -20 6 -8 2 2" fill="none" stroke="#D7E6F5" stroke-width="4" stroke-linecap="round"/>
<line x1="-46" y1="46" x2="-10" y2="10" stroke="#3A3A4A" stroke-width="9" stroke-linecap="round"/>
<rect x="-12" y="-8" width="30" height="16" rx="4" transform="rotate(-45 3 0)" fill="#A0C4FF" stroke="#3A3A4A" stroke-width="5"/>
<g transform="rotate(-45 3 0)"><line x1="-6" y1="-8" x2="-6" y2="-16" stroke="#3A3A4A" stroke-width="3" stroke-linecap="round"/><line x1="0" y1="-8" x2="0" y2="-16" stroke="#3A3A4A" stroke-width="3" stroke-linecap="round"/><line x1="6" y1="-8" x2="6" y2="-16" stroke="#3A3A4A" stroke-width="3" stroke-linecap="round"/><line x1="12" y1="-8" x2="12" y2="-16" stroke="#3A3A4A" stroke-width="3" stroke-linecap="round"/></g>
<path d="M 26 -34 l 3 8 l 8 3 l -8 3 l -3 8 l -3 -8 l -8 -3 l 8 -3 Z" fill="#FFE08A" stroke="#3A3A4A" stroke-width="2"/></g>
<path d="M 397.00 561.00 L 397.00 933.00 A 372.00 372.00 0 0 1 133.96 824.04 Z" fill="#A0C4FF" stroke="#3A3A4A" stroke-width="3"/>
<g transform="translate(311.59,767.21) scale(1.55)"><path d="M -20 -34 q 20 14 40 0 l 16 12 l -12 14 l -10 -7 l 0 50 q 0 6 -6 6 l -10 0 0 -22 -4 0 0 22 -10 0 q -6 0 -6 -6 l 0 -50 l -10 7 l -12 -14 Z" fill="#9DBBF5" stroke="#3A3A4A" stroke-width="6"/>
<path d="M -10 -32 q 10 9 20 0" fill="none" stroke="#3A3A4A" stroke-width="6" stroke-linecap="round" stroke-linejoin="round"/>
<line x1="0" y1="-22" x2="0" y2="22" stroke="#3A3A4A" stroke-width="3"/>
<circle cx="0" cy="-12" r="3" fill="#3A3A4A"/>
<circle cx="0" cy="0" r="3" fill="#3A3A4A"/>
<circle cx="0" cy="12" r="3" fill="#3A3A4A"/>
<path d="M -18 6 a 8 8 0 1 0 6 12 a 6.5 6.5 0 1 1 -6 -12 Z" fill="#FDFFB6" stroke="#3A3A4A" stroke-width="2.5"/></g>
<path d="M 397.00 561.00 L 133.96 824.04 A 372.00 372.00 0 0 1 25.00 561.00 Z" fill="#BDB2FF" stroke="#3A3A4A" stroke-width="3"/>
<g transform="translate(190.79,646.41) scale(1.55)"><rect x="-42" y="-22" width="34" height="50" rx="5" fill="#FF9AA2" stroke="#3A3A4A" stroke-width="6"/>
<line x1="-34" y1="-22" x2="-34" y2="28" stroke="#3A3A4A" stroke-width="3"/>
<line x1="-28" y1="-10" x2="-14" y2="-10" fill="none" stroke="#3A3A4A" stroke-width="6" stroke-linecap="round" stroke-linejoin="round"/>
<line x1="-28" y1="2" x2="-14" y2="2" fill="none" stroke="#3A3A4A" stroke-width="6" stroke-linecap="round" stroke-linejoin="round"/>
<g transform="rotate(8 22 4)"><rect x="6" y="-26" width="34" height="50" rx="5" fill="#9BF6FF" stroke="#3A3A4A" stroke-width="6"/><line x1="14" y1="-26" x2="14" y2="24" stroke="#3A3A4A" stroke-width="3"/><line x1="20" y1="-14" x2="34" y2="-14" fill="none" stroke="#3A3A4A" stroke-width="6" stroke-linecap="round" stroke-linejoin="round"/><line x1="20" y1="-2" x2="34" y2="-2" fill="none" stroke="#3A3A4A" stroke-width="6" stroke-linecap="round" stroke-linejoin="round"/></g></g>
<path d="M 397.00 561.00 L 25.00 561.00 A 372.00 372.00 0 0 1 133.96 297.96 Z" fill="#FFC6FF" stroke="#3A3A4A" stroke-width="3"/>
<g transform="translate(190.79,475.59) scale(1.55)"><path d="M -48 34 l 0 -28 q 0 -8 8 -8 l 8 0 q 6 0 6 6 l 0 10 l 60 0 q 8 0 8 8 l 0 12" fill="#FFDCEB" stroke="#3A3A4A" stroke-width="6"/>
<line x1="-48" y1="34" x2="-48" y2="48" fill="none" stroke="#3A3A4A" stroke-width="6" stroke-linecap="round" stroke-linejoin="round"/>
<line x1="42" y1="34" x2="42" y2="48" fill="none" stroke="#3A3A4A" stroke-width="6" stroke-linecap="round" stroke-linejoin="round"/>
<line x1="-48" y1="34" x2="42" y2="34" fill="none" stroke="#3A3A4A" stroke-width="6" stroke-linecap="round" stroke-linejoin="round"/>
<path d="M -22 14 l 64 0" stroke="#3A3A4A" stroke-width="4" stroke-linecap="round"/>
<rect x="-40" y="-6" width="22" height="16" rx="5" fill="#fff" stroke="#3A3A4A" stroke-width="4"/>
<path d="M 10 30 q 12 -7 24 -1 l 0 -16 q -12 -6 -24 1 q -12 -7 -24 -1 l 0 16 q 12 -6 24 1 Z" transform="translate(-2 -6)" fill="#fff" stroke="#3A3A4A" stroke-width="4"/>
<line x1="8" y1="9" x2="8" y2="25" stroke="#3A3A4A" stroke-width="3"/></g>
<path d="M 397.00 561.00 L 133.96 297.96 A 372.00 372.00 0 0 1 397.00 189.00 Z" fill="#FFADAD" stroke="#3A3A4A" stroke-width="3"/>
<g transform="translate(311.59,354.79) scale(1.55)"><circle cx="-6" cy="8" r="32" fill="#FFE2C2" stroke="#3A3A4A" stroke-width="6"/>
<path d="M -22 2 q 7 9 14 0" fill="none" stroke="#3A3A4A" stroke-width="6" stroke-linecap="round" stroke-linejoin="round"/>
<path d="M 2 2 q 7 9 14 0" fill="none" stroke="#3A3A4A" stroke-width="6" stroke-linecap="round" stroke-linejoin="round"/>
<circle cx="-24" cy="14" r="5" fill="#FFB3A7"/>
<circle cx="14" cy="14" r="5" fill="#FFB3A7"/>
<path d="M -8 22 q 8 6 16 0" fill="none" stroke="#3A3A4A" stroke-width="6" stroke-linecap="round" stroke-linejoin="round"/>
<polyline points="20,0 30,0 20,10 30,10" fill="none" stroke="#3A3A4A" stroke-width="4.5" stroke-linecap="round" stroke-linejoin="round"/>
<polyline points="30,-16 43,-16 30,-3 43,-3" fill="none" stroke="#3A3A4A" stroke-width="4.5" stroke-linecap="round" stroke-linejoin="round"/>
<polyline points="42,-36 58,-36 42,-20 58,-20" fill="none" stroke="#3A3A4A" stroke-width="4.5" stroke-linecap="round" stroke-linejoin="round"/></g>
<circle cx="397" cy="561" r="68" fill="#3A3A4A" stroke="#3A3A4A" stroke-width="3"/>
<path d="M 389 531 a 30 30 0 1 0 20 46 a 24 24 0 1 1 -20 -46 Z" fill="#FFE08A"/>
<circle cx="423" cy="547" r="3.5" fill="#fff"/>
<circle cx="413" cy="587" r="3" fill="#fff"/>
<circle cx="367" cy="583" r="3" fill="#fff"/>
</svg>