<svg width="100%" height="100%" aria-hidden="true" fill="currentColor" viewBox="0 0 64 40" xmlns="http://www.w3.org/2000/svg">
  <!-- the seabed it perches on (the tile's anchor cue) -->
  <path d="M2 34 L62 34 L62 35.6 L2 35.6 Z"/>
  <!-- A single bold goby/dragonet, the whole "small bottom fish" bucket in one
       clear shape (the old two-fish version blurred into a blob at icon size).
       Faces left: big blunt rounded head, body tapering to a rounded paddle
       tail, one low smooth dorsal hump along the back, resting low on the sand. -->
  <path d="M8 25
           C7.5 21.5 9.5 18 15 18
           C19 17 22.5 16 28 16
           C34 16 40 19 45 22
           C48 22.5 51 20.5 54 19
           C57 22 57 27 54 30
           C51 29 48 27.5 45 27
           C35 30 24 31 16 31
           C11 31 9 28 8 25 Z"/>
  <!-- big pectoral fan planted down-and-forward onto the sand: the perch-and-dart
       give-away that marks these out from a free-swimming fish -->
  <path d="M20 27.5
           C14 29.5 9.5 33 10.5 36.5
           C16 34.5 22 31 24 28.5
           C22.7 27.9 21.2 27.6 20 27.5 Z"/>
</svg>
