<svg width="100%" height="100%" aria-hidden="true" fill="currentColor" viewBox="0 0 64 40" xmlns="http://www.w3.org/2000/svg">
  <!-- the seabed it perches on -->
  <path d="M2 34 L62 34 L62 35.6 L2 35.6 Z"/>
  <!-- blunt-headed fish resting on the bottom, flat belly along the seabed -->
  <path d="M9 21 C10 14.5 17 12 26 12 C35 12 43 15 49 20 C47 26 40 30 30 31 L15 31 C11 31 9 27.5 9 21 Z"/>
  <!-- small first dorsal -->
  <path d="M22 12 C24 9 27 9 29 11 C27 11.5 24 11.5 22 12 Z"/>
  <!-- big splayed fan pectoral fin (the bottom-percher give-away) -->
  <path d="M18 30 C13.5 32.5 11.5 36 12.5 38.8 C16.8 36.6 22.5 33.4 24.5 30.5 Z"/>
  <!-- short tail -->
  <path d="M49 20 L57 16.5 L54 21 L57 25.5 Z"/>
</svg>
