<svg width="100%" height="100%" aria-hidden="true" fill="currentColor" viewBox="0 0 64 40" xmlns="http://www.w3.org/2000/svg">
  <path d="M5 25 C7 18 14 14 24 14 C38 14 50 17 56 21 C53 24 47 26 38 27 C26 28 12 29 8 28 C5.5 27.5 4.5 26.5 5 25 Z"/>
  <path d="M55 19 L63 15 C64 20 64 24 63 29 L55 24 Z"/>
  <path d="M18 14 C20 8 24 6 27 6 C26 9 26 12 27 14 Z"/>
  <path d="M31 14 C38 11 46 11 51 13 C46 14 38 15 31 15 Z"/>
  <path d="M22 22 C20 27 20 33 23 37 C27 35 31 31 32 27 C29 25 25 23 22 22 Z"/>
  <path d="M16 28 C15 31 15 34 17 36 C19 34 20 31 19 29 C18 28.5 17 28 16 28 Z"/>
</svg>
