<svg width="100%" height="100%" aria-hidden="true" fill="currentColor" viewBox="0 0 64 40" xmlns="http://www.w3.org/2000/svg">
  <!-- robust blunt-headed body -->
  <path d="M7 21 C9 14.5 16 11.5 27 11.5 C38 11.5 47 14.5 51 20 C47 25.5 38 28.5 27 28.5 C16 28.5 9 26.5 7 21 Z"/>
  <!-- three separate dorsal fins, rounded (the cod give-away) -->
  <path d="M15 12 C16.5 7.5 19.5 6.5 21.5 8 C20.5 9.5 20 11 20 12.3 Z"/>
  <path d="M25 11.5 C26.5 6.8 29.5 6 31.5 7.6 C30.5 9.2 30 10.6 30 12 Z"/>
  <path d="M34.5 12 C36 7.6 39 6.8 41 8.4 C40 10 39.5 11 39.5 12.4 Z"/>
  <!-- two rounded anal fins under the belly -->
  <path d="M26.5 28.5 C28 32.5 30.5 33.4 32 31.5 C30.8 30.4 30 29.6 29.4 28.4 Z"/>
  <path d="M34 28.3 C35.4 31.8 37.6 32.6 39 31 C38 30 37.2 29.2 36.6 28.2 Z"/>
  <!-- soft forked tail -->
  <path d="M50.5 20 C57.5 14.5 61.5 13.5 62.5 13.5 C61 17 60.4 18.6 60.4 20 C60.4 21.4 61 23 62.5 26.5 C61.5 26.5 57.5 25.5 50.5 20 Z"/>
  <!-- chin barbel -->
  <path d="M9 23.5 C8.2 26 8.6 28 10 29 C10.4 27 10 25 9.8 23.6 Z"/>
</svg>
