<svg width="100%" height="100%" aria-hidden="true" fill="currentColor" viewBox="0 0 48 48" xmlns="http://www.w3.org/2000/svg">
  <!-- diving seabird (shag/cormorant gestalt): streamlined body underwater,
       neck extended forward, hooked bill, paddling foot trailing behind -->
  <path d="M8 30
           C8 24 12 20 18 19
           C19 14 22 8 27 6
           C29 5.3 30.5 6 30 8
           C29 10 27 12 26.5 15
           C31 16 35 20 36 25
           C36.5 27.5 35.5 30 33 31
           C28 33 20 33 15 32
           C11 31.3 8.5 31 8 30 Z"/>
  <path d="M12 32 C10 35 8 38 5 40 C9 40 13 38 15 34.5 Z"/>
</svg>
