<svg width="100%" height="100%" aria-hidden="true" fill="currentColor" viewBox="0 0 72 40" xmlns="http://www.w3.org/2000/svg">
  <!-- long slender eel/ribbon body: blunt rounded head (left), gentle single S,
       tapering toward the tail (right). ~6:1 length:depth — the give-away.
       The reversed inner sub-path punches the eye as negative space. -->
  <path fill-rule="evenodd" d="
    M7 20
    C7 16 9.5 13.8 13 13.6
    C22 13 31 16 40 18
    C48 19.6 55 21 60 22.4
    C60 23.6 60 24.4 60 25.6
    C55 24.4 48 23.2 40 22.2
    C31 21 22 19.8 14 21.6
    C10 22.4 7.4 22 7 20
    Z
    M12.6 18.4
    C11.5 18.4 11.5 19.9 12.6 19.9
    C13.7 19.9 13.7 18.4 12.6 18.4
    Z
  "/>
  <!-- small even tail fin: a rounded lance, taller than the slim body end but
       symmetric and modest (NOT a forked clupeid or an asymmetric shark tail) -->
  <path d="M60 21 C65 17.5 68 16.8 69 16.8 C67.6 19.6 67.2 21 67.2 22.3 C67.2 23.6 67.6 25 69 27.8 C68 27.8 65 27.1 60 24.6 Z"/>
  <!-- faint long low fin along the rear underside (eel/butterfish character);
       kept very shallow so it doesn't thicken the thin-body read -->
  <path d="M30 21.4 C34 22.7 40 23.4 47 23.9 C44 24.7 38 24.5 31 23.2 C30.4 23 30 22.2 30 21.4 Z"/>
</svg>
