<svg width="100%" height="100%" aria-hidden="true" fill="currentColor" viewBox="0 0 52 32" xmlns="http://www.w3.org/2000/svg">
  <!-- seal: torpedo body, raised whiskered head, front + rear flippers -->
  <path d="M40 12
           C40 7.5 36.5 5 32 5
           C29 5 27.5 7 26.5 9
           C21 6.5 13 6.5 8 10.5
           C4 13.5 2.5 17.5 3.5 21
           C4.5 24.5 8 26.5 13.5 26
           C19 25.5 24 22.5 27 19
           C31 21 36 21 39 18.5
           C40.5 17 41 14.5 40 12 Z"/>
  <path d="M7 18.5c-1.8 1.8-2.6 4.3-2 6.8 2.4-1 3.8-3 3.9-5.4z"/>
  <path d="M24 20.5c1 2 1 3.8 0 5.5 -1.5-1-2-2.8-1.6-4.6z"/>
</svg>
