<svg width="100%" height="100%" aria-hidden="true" fill="currentColor" viewBox="0 0 48 48" xmlns="http://www.w3.org/2000/svg">
  <!-- regular sea urchin: round test with short radiating spines all round -->
  <circle cx="24" cy="24" r="13"/>
  <path d="M24 24 L24 2 M24 24 L24 46 M24 24 L2 24 M24 24 L46 24
           M24 24 L8.5 8.5 M24 24 L39.5 8.5 M24 24 L8.5 39.5 M24 24 L39.5 39.5
           M24 24 L14 4.5 M24 24 L34 4.5 M24 24 L14 43.5 M24 24 L34 43.5
           M24 24 L4.5 14 M24 24 L43.5 14 M24 24 L4.5 34 M24 24 L43.5 34"
        stroke="currentColor" strokeWidth="2.2" strokeLinecap="round" fill="none"/>
</svg>
