<svg width="100%" height="100%" aria-hidden="true" fill="currentColor" viewBox="0 0 44 40" xmlns="http://www.w3.org/2000/svg">
  <!-- saucer jellyfish: a smooth domed bell with a fringe of short marginal
       tentacles (no gonad rings, which read as a face) -->
  <path d="M4 21 C4 10 13 4.5 22 4.5 C31 4.5 40 10 40 21 C34 24.5 29 25.5 22 25.5 C15 25.5 10 24.5 4 21 Z"/>
  <path d="M6 23 C5.4 28 4.8 33 4 38 C5.6 33 6.8 28 8 23.4 Z"/>
  <path d="M10.5 24.4 C10.2 29 9.8 34 9.2 39 C10.4 34 11.4 29 12 24.6 Z"/>
  <path d="M15.5 25.1 C15.4 30 15.2 35 14.8 39.6 C15.8 35 16.6 30 17 25.2 Z"/>
  <path d="M20.5 25.4 C20.5 30.5 20.5 35.5 20.4 40 C21 35.5 21.4 30.5 21.6 25.4 Z"/>
  <path d="M25.5 25.1 C25.8 30 26.2 35 26.6 39.6 C25.8 35 25 30 24.6 25.2 Z"/>
  <path d="M30.5 24.4 C31 29 31.4 34 32 39 C31.2 34 30.4 29 29.8 24.6 Z"/>
  <path d="M34.5 23 C35.4 28 36.2 33 37 38 C36.4 33 35.6 28 34.8 23.4 Z"/>
</svg>
