<svg width="100%" height="100%" aria-hidden="true" fill="currentColor" xmlns="http://www.w3.org/2000/svg" viewBox="0 0 100 100" preserveAspectRatio="xMidYMid meet">
<title>Moon jelly: domed bell with four gonad rings</title>
<path fill-rule="evenodd" clip-rule="evenodd" d="M 16,60 C 16,28 32,14 50,14 C 68,14 84,28 84,60 Q 78,68 72,60 Q 66,68 60,60 Q 54,68 48,60 Q 42,68 36,60 Q 30,68 24,60 Q 20,66 16,60 Z M 43.50,35.00 C 43.50,31.41 46.41,28.50 50.00,28.50 C 53.59,28.50 56.50,31.41 56.50,35.00 C 56.50,38.59 53.59,41.50 50.00,41.50 C 46.41,41.50 43.50,38.59 43.50,35.00 Z M 32.50,46.00 C 32.50,42.41 35.41,39.50 39.00,39.50 C 42.59,39.50 45.50,42.41 45.50,46.00 C 45.50,49.59 42.59,52.50 39.00,52.50 C 35.41,52.50 32.50,49.59 32.50,46.00 Z M 54.50,46.00 C 54.50,42.41 57.41,39.50 61.00,39.50 C 64.59,39.50 67.50,42.41 67.50,46.00 C 67.50,49.59 64.59,52.50 61.00,52.50 C 57.41,52.50 54.50,49.59 54.50,46.00 Z M 43.50,57.00 C 43.50,53.41 46.41,50.50 50.00,50.50 C 53.59,50.50 56.50,53.41 56.50,57.00 C 56.50,60.59 53.59,63.50 50.00,63.50 C 46.41,63.50 43.50,60.59 43.50,57.00 Z"/>
</svg>
