<svg width="100%" height="100%" aria-hidden="true" fill="currentColor" viewBox="0 0 70 40" xmlns="http://www.w3.org/2000/svg">
  <!-- lead clupeid: streamlined back, one small soft dorsal, deep forked tail -->
  <path d="M8 25 C12 19.5 22 17.5 33 18 C43 18.5 51 21 55 25 C51 29 43 31.5 33 32 C22 32.5 12 30.5 8 25 Z"/>
  <path d="M29 18 C31 15.2 34 15.2 36 17.4 C34 17.8 31 17.8 29 18 Z"/>
  <path d="M55 25 L66 19.5 L61 25 L66 30.5 Z"/>
  <!-- a second, smaller fish above to read as a shoal -->
  <path d="M9 8 C12 4.8 18 3.8 24 4.6 C29 5.2 33 6.6 35 9 C32 11 27 11.6 22 11.4 C16 11.2 12 10 9 8 Z"/>
  <path d="M35 9 L42 5.6 L38.5 9 L42 12.4 Z"/>
</svg>
