<svg width="100%" height="100%" aria-hidden="true" fill="currentColor" viewBox="0 0 48 58" xmlns="http://www.w3.org/2000/svg">
  <!-- simple domed bell -->
  <path d="M7 22 C7 10 15 5 24 5 C33 5 41 10 41 22 C35 25.5 30 26.5 24 26.5 C18 26.5 13 25.5 7 22 Z"/>
  <!-- clean, long trailing tentacles (thicker + fewer than before, no blob) -->
  <path d="M10 24 C9 34 9.5 45 8 54 C9.5 45 11.5 34 12.5 24 Z"/>
  <path d="M15 25 C14.5 35 15 46 14 55 C15.2 46 16.8 35 17.2 25 Z"/>
  <path d="M20 26 C19.6 36 20 47 19.6 56 C20.6 47 21.6 36 22 26 Z"/>
  <path d="M24 26.4 C24 37 24 47 24 56 C24.6 47 25 37 25 26.4 Z"/>
  <path d="M28 26 C28.4 36 29 47 29.6 56 C29 47 28.6 36 28 26 Z"/>
  <path d="M33 25 C34 35 35 46 36 55 C35 46 34.8 35 34 25 Z"/>
  <path d="M38 24 C39 34 39.5 45 41 54 C39.5 45 38.5 34 37 24 Z"/>
</svg>
