<svg width="100%" height="100%" aria-hidden="true" fill="currentColor" viewBox="0 0 64 46" xmlns="http://www.w3.org/2000/svg">
  <!-- deep oval body, blunt thick-lipped head (left) -->
  <path d="M11 24 C11 14 19 8.5 31 8.5 C42 8.5 50 13 52 20 C53 23 53 25 52 28 C50 35 42 39.5 31 39.5 C19 39.5 11 34 11 24 Z"/>
  <!-- blunt snout / thick lips -->
  <path d="M11 21 C8 21 6.5 23 6.5 24.5 C6.5 26 8 27.5 11 27.5 Z"/>
  <!-- ONE long continuous dorsal fin running the whole back (the wrasse give-away) -->
  <path d="M17 10 C24 4.5 44 4.5 50 11 C44 9 24 8.5 17 10 Z"/>
  <!-- matching long anal fin along the lower back half -->
  <path d="M30 39 C38 42.5 46 42 50 37 C45 38 36 38.5 30 38 Z"/>
  <!-- rounded paddle tail (not forked) -->
  <path d="M52 24 C58 19.5 61 19.5 62 20.5 C61 24 61 24 62 27.5 C61 28.5 58 28.5 52 24 Z"/>
</svg>
