<svg width="100%" height="100%" aria-hidden="true" fill="currentColor" viewBox="0 0 68 44" xmlns="http://www.w3.org/2000/svg">
  <!-- Wrasse gestalt: DEEP oblong body, sharply POINTED thick-lipped snout with
       a forward lip-pout, ONE tall long-based dorsal LIFTED off the back (a
       sliver of negative space between fin and body so it reads as a single
       continuous fin, NOT cod's three separate humps), big rounded pectoral,
       bold rounded paddle tail (never forked). Faces left. -->
  <!-- BODY: deep oblong. Top edge held LOW (y~14) so the dorsal above it stays a
       separate element; bottom belly bulges to y~34. Leading edge runs to a
       sharp wedge at the snout (x~3) at mid-height. -->
  <path d="M3 22
           C7 15 13 12 21 11
           C31 10 41 12 49 18
           C51 19.5 52 20.8 52 22
           C52 23.2 51 24.5 49 26
           C41 32 31 34 21 33
           C13 32 7 29 3 22 Z"/>
  <!-- THICK-LIPPED POINTED SNOUT: a forward-jutting rounded pout at the wedge
       tip, with a small mouth-corner notch on the underside so the lip reads as
       a distinct module even at icon size. -->
  <path d="M3 22
           C1 20.5 0.5 21.5 0.6 22.4
           C0.7 23.3 1.4 24 2.4 24
           C3.2 24 3.8 23.4 4 22.8
           C3.4 22.6 3.1 22.3 3 22 Z"/>
  <!-- ONE TALL LONG-BASED DORSAL, LIFTED OFF THE BACK. Anchors to the body only
       at the front (x~17) and rear (x~46) tips; in between, the fin's lower edge
       sits ABOVE the body's top edge, leaving a thin negative-space gap that
       makes it read as a single continuous fin on top of the back. Peaks toward
       the rear (the soft wrasse dorsal lobe). One smooth arc — NO scallops, so
       it can never read as cod's three humps. -->
  <path d="M17 12.5
           C20 6 26 4 33 3.6
           C39 3.3 44 4 47 6.5
           C48 9 47.5 12 46.5 14.5
           C42 11.5 33 10.8 27 11
           C23 11.2 20 11.7 17 12.5 Z"/>
  <!-- BIG ROUNDED PECTORAL behind the gill, hanging below the belly. -->
  <path d="M23 25
           C19 31 21 36 27 37
           C28 32 27 28 27 26
           C25.5 25 24 25 23 25 Z"/>
  <!-- LOW LONG ANAL FIN under the rear belly (silhouette enrichment only). -->
  <path d="M33 33.5
           C36 37.5 41 36.5 44 32.5
           C39 34.5 35 34.5 34 33.5 Z"/>
  <!-- BOLD ROUNDED PADDLE TAIL: fully convex semicircular fan, never forked. -->
  <path d="M50 22
           C56 15 63 13 66 14.5
           C67.5 18 67.5 26 66 29.5
           C63 31 56 29 50 22 Z"/>
</svg>
