<svg width="100%" height="100%" aria-hidden="true" fill="currentColor" viewBox="0 0 60 48" xmlns="http://www.w3.org/2000/svg">
  <!-- crawling snail: muscular foot along the ground, head + two eye-tentacles
       reaching forward (right), and a coiled spiral shell riding on the back -->
  <path d="M8 41 C8 37 12 35 19 35 L45 35 C51 35 55 37 55 39.5 C55 41.5 51 42.5 45 42.5 L16 42.5 C11 42.5 8 41.8 8 41 Z"/>
  <path d="M47 35 C48 31 49 28 50 25 C51 26 52 27 52 28.5 C53 27 54 25 55.5 24 C56 25 55.5 26.5 54.5 28 C56 28 57.5 28.5 58 30 C56.5 30.5 54 30.5 52.5 30 C53 32 52 34 50 35 Z"/>
  <path d="M30 35 C16 35 9 25 14 15 C18 7 30 5 38 11 C44 15.5 44 24 38 27.5 C33 30.5 26 28.5 25 22.5 C24.4 18 28 15 32 16.5 C29 16 27 18 27.5 21 C28 24 32 25 35 23 C39 20.5 39 14.5 34 11.5 C28 8 19 10.5 16 18 C12.5 27 19 35 30 36.5 Z"/>
</svg>
