<svg width="100%" height="100%" aria-hidden="true" fill="currentColor" fill-rule="evenodd" viewBox="0 0 66 40" xmlns="http://www.w3.org/2000/svg">
  <!-- mantle (tail to the right) with a big eye hole near the head, plus the
       triangular tail fins and a tangle of curling arms reaching left, so it
       reads as a cephalopod and not a rocket -->
  <path d="M24 20 C27 11 40 9 50 11 C57 12 61 15 62 20 C61 25 57 28 50 29 C40 31 27 29 24 20 Z M30 17 a2.4 2.4 0 1 0 0.1 0 Z"/>
  <path d="M55 13 L66 10 L60 20 L66 30 L55 27 C58 24 58 16 55 13 Z"/>
  <path d="M24 18 C16 16 9 16 4 18 C9 18.5 14 19 17 19.5 C12 20 8 22 5 25 C10 22.5 17 20.5 24 19.5 Z"/>
  <path d="M24 21 C16 21.5 9 23 4 26 C8 26 13 25.5 16 25 C13 26.5 11 29 11 32 C15 28.5 20 24 24 22 Z"/>
  <path d="M25 23 C19 25 13 27 9 31 C13 29 18 27 21 25.5 C19 27.5 18 30 19 33 C22 29 24 25.5 25 23.5 Z"/>
</svg>
