<svg width="100%" height="100%" aria-hidden="true" fill="currentColor" viewBox="0 0 48 48" xmlns="http://www.w3.org/2000/svg">
  <circle cx="24" cy="24" r="9.5"/>
  <path d="M32.45 23.04 L46.00 24.00 L32.45 24.96 Z"/>
  <path d="M32.17 26.34 L44.33 32.42 L31.43 28.12 Z"/>
  <path d="M30.65 29.29 L39.56 39.56 L29.29 30.65 Z"/>
  <path d="M28.12 31.43 L32.42 44.33 L26.34 32.17 Z"/>
  <path d="M24.96 32.45 L24.00 46.00 L23.04 32.45 Z"/>
  <path d="M21.66 32.17 L15.58 44.33 L19.88 31.43 Z"/>
  <path d="M18.71 30.65 L8.44 39.56 L17.35 29.29 Z"/>
  <path d="M16.57 28.12 L3.67 32.42 L15.83 26.34 Z"/>
  <path d="M15.55 24.96 L2.00 24.00 L15.55 23.04 Z"/>
  <path d="M15.83 21.66 L3.67 15.58 L16.57 19.88 Z"/>
  <path d="M17.35 18.71 L8.44 8.44 L18.71 17.35 Z"/>
  <path d="M19.88 16.57 L15.58 3.67 L21.66 15.83 Z"/>
  <path d="M23.04 15.55 L24.00 2.00 L24.96 15.55 Z"/>
  <path d="M26.34 15.83 L32.42 3.67 L28.12 16.57 Z"/>
  <path d="M29.29 17.35 L39.56 8.44 L30.65 18.71 Z"/>
  <path d="M31.43 19.88 L44.33 15.58 L32.17 21.66 Z"/>
</svg>
