<svg width="100%" height="100%" aria-hidden="true" fill="currentColor" viewBox="0 0 64 40" xmlns="http://www.w3.org/2000/svg">
  <!-- PEBL original: a hauled/afloat seal gestalt for the "Other wildlife"
       gate tile (torpedo body, raised head, front + rear flippers). Rendered
       via CSS mask (see MaskSilhouette), so only the shape's coverage matters,
       not internal fills — kept as one solid silhouette, no linework. -->
  <path d="M50 14
           C50 9 46 6 41 6
           C37 6 35 8.5 34 11
           C28 8 19 8 13 12
           C7 15.5 5 20 6 24
           C7 28 11 30 17 29.5
           C23 29 29 26 33 22
           C38 24.5 44 24.5 48 22
           C50 20 51 17 50 14 Z
           M9 22 C7 24 6 27 7 30
           C9 29 10.5 26.5 10.5 24 Z
           M31 25 C32 27 32 29 31 31
           C29.5 29.5 29 27 29.5 25 Z"/>
</svg>
